#N canvas 1514 -51 872 740 10;
#X obj 11 -29 arbum;
#X obj 690 -25 pddp/dsp;
#N canvas 0 22 450 300 volume 0;
#X obj 107 120 knob 32 32 0 127 0 0 empty empty empty 0 -8 0 8 -262144
-1 -1 1700 1;
#X obj 107 162 / 127;
#X obj 107 182 pack \$1 50;
#X obj 107 205 vline~;
#X obj 107 227 outlet~;
#X obj 106 62 inlet;
#X connect 0 0 1 0;
#X connect 1 0 2 0;
#X connect 2 0 3 0;
#X connect 3 0 4 0;
#X connect 5 0 0 0;
#X coords 0 -1 1 1 65 60 1 100 100;
#X restore 687 5 pd volume;
#X obj 687 71 s~ volume;
#X obj 403 540 bng 15 250 50 0 empty empty empty 17 7 0 10 -262144
-1 -1;
#X obj 214 268 bng 15 250 50 0 empty empty empty 17 7 0 10 -262144
-1 -1;
#X obj 21 265 bng 15 250 50 0 empty empty empty 17 7 0 10 -262144 -1
-1;
#X obj 217 541 bng 15 250 50 0 empty empty empty 17 7 0 10 -262144
-1 -1;
#X obj 592 454 bng 15 250 50 0 empty empty empty 17 7 0 10 -262144
-1 -1;
#X obj 591 561 bng 15 250 50 0 empty empty empty 17 7 0 10 -262144
-1 -1;
#X obj 591 322 bng 15 250 50 0 empty empty empty 17 7 0 10 -262144
-1 -1;
#X obj 591 193 bng 15 250 50 0 empty empty empty 17 7 0 10 -262144
-1 -1;
#N canvas 990 22 450 300 parked 0;
#X obj 15 52 bass1;
#X obj 14 74 bass2;
#X obj 13 197 kick;
#X obj 14 102 guitar2;
#X obj 302 227 crash;
#X obj 165 226 hat1;
#X obj 10 225 snare1;
#X obj 58 225 snare2;
#X obj 251 225 guitar1;
#X obj 118 225 hat2;
#X obj 133 123 tr808-cp~;
#X msg 133 104 trigger \$1;
#X msg 204 105 gain \$1;
#X obj 133 143 throw~ bum;
#X obj 11 133 hitom;
#X obj 53 133 lotom;
#X text 158 44 bonkers/drumbonk;
#X connect 10 0 13 0;
#X connect 11 0 10 0;
#X connect 12 0 10 0;
#X restore 687 92 pd parked;
#N canvas 1585 388 452 382 savedata 0;
#X msg 20 40 \; SSSAD_ADMIN set \; SSSAD /sd/controls 0 0.506949 1
0.8 2 0.7 3 0.6 4 0.55 5 0.42 6 0.55 7 0.6 8 0.35 9 0.45 \; SSSAD /cow/controls
0 0.367797 1 0.355932 2 0.745763 3 0.486441 4 0 5 0.49 \; SSSAD /bell/controls
0 0.605085 1 0.937288 2 0.4 \; SSSAD /andyhat/controls 0 0.157458 1
0.354407 2 0.19678 3 0.267797 4 0.0866102 5 0.45661 6 0.133898 7 0.37
\; SSSAD /cym1/controls 0 0.44 1 0.717797 2 0.254237 3 0.615254 4 0.836441
5 0.45 \; SSSAD /cym2/controls 0 0.406102 1 0.65 2 0.673729 3 0.7 4
0.666949 5 0.500847 \; SSSAD /clap/controls 0 0.566949 1 0.284746 2
0.864407 3 0.59322 4 0.40678 5 0.457627 6 0.508475 7 0.367797 \; SSSAD
/bd/controls 0 0.271186 1 0.576271 2 0.271186 3 0.491525 4 0.677966
5 0.694915 6 0.59322 7 0.59322 \; SSSAD /hh/controls 0 0.602542 1 0.864407
2 0.745763 3 0.769492 4 0.610169 5 0.116949 6 0.576271 7 0.762712 8
0.169492 9 0.0847458 10 0.932203 11 0.569492 \;;
#X obj 20 20 inlet;
#X msg 72 17 set;
#X connect 1 0 0 0;
#X connect 2 0 0 0;
#X restore 766 36 pd savedata;
#X obj 765 -27 808_global;
#X obj 214 285 perk-hihat /hh;
#X obj 21 282 perk-bassdrum /bd;
#X obj 403 557 perk-clap /clap;
#X obj 592 339 perk-cymbal2 /cym2;
#X obj 590 210 perk-cymbal /cym1;
#X obj 216 560 perk-andyHat /andyhat;
#X obj 592 472 perk-bell /bell;
#X obj 591 579 perk-cowbell /cow;
#X obj 403 382 perk-snare /sd;
#X obj 402 363 bng 15 250 50 0 empty empty empty 17 7 0 10 -262144
-1 -1;
#X obj 215 448 throw~ bum;
#X obj 403 673 throw~ bum;
#X obj 21 398 throw~ bum;
#X obj 592 432 throw~ bum;
#X obj 403 520 throw~ bum;
#X obj 590 302 throw~ bum;
#X obj 216 676 throw~ bum;
#X obj 592 670 throw~ bum;
#X obj 592 540 throw~ bum;
#N canvas 0 22 450 300 mastervol 0;
#X obj 43 89 dac~;
#X obj 61 49 r~ volume;
#X obj 46 30 catch~ bum;
#X obj 46 69 *~;
#X connect 1 0 3 1;
#X connect 2 0 3 0;
#X connect 3 0 0 0;
#X connect 3 0 0 1;
#X restore 761 91 pd mastervol;
#N canvas 990 22 450 300 bdvel 0;
#X obj 133 153 outlet;
#X obj 132 112 / 127;
#X obj 134 42 inlet;
#X obj -13 52 pack f f;
#X obj -17 20 notein 19;
#X obj -13 76 route 48;
#X msg 133 132 7 \$1;
#X connect 1 0 6 0;
#X connect 2 0 1 0;
#X connect 3 0 5 0;
#X connect 4 0 3 0;
#X connect 4 1 3 1;
#X connect 5 0 1 0;
#X connect 6 0 0 0;
#X restore 70 262 pd bdvel;
#N canvas 976 22 450 300 hhvel 0;
#X obj 122 167 outlet;
#X obj 122 102 / 127;
#X obj 124 32 inlet;
#X obj -24 17 notein 19;
#X obj -23 66 route 39;
#X obj -23 42 pack f f;
#X msg 130 134 3 \$1;
#X connect 1 0 0 0;
#X connect 2 0 1 0;
#X connect 3 0 5 0;
#X connect 3 1 5 1;
#X connect 4 0 1 0;
#X connect 5 0 4 0;
#X connect 6 0 0 0;
#X restore 278 265 pd hhvel;
#N canvas 908 439 450 300 sdvel 0;
#X obj 143 163 outlet;
#X obj 142 122 / 127;
#X obj 144 52 inlet;
#X obj -3 62 pack f f;
#X obj -7 30 notein 19;
#X obj -3 86 route 45;
#X msg 143 142 9 \$1;
#X connect 1 0 6 0;
#X connect 2 0 1 0;
#X connect 3 0 5 0;
#X connect 4 0 3 0;
#X connect 4 1 3 1;
#X connect 5 0 1 0;
#X connect 6 0 0 0;
#X restore 460 363 pd sdvel;
#N canvas 0 22 450 300 andyhatvel 0;
#X obj 153 173 outlet;
#X obj 152 132 / 127;
#X obj 154 62 inlet;
#X obj 32 206 midimonitor;
#X obj 7 72 pack f f;
#X msg 153 152 7 \$1;
#X obj 3 40 notein 19;
#X obj 7 96 route 36;
#X connect 1 0 5 0;
#X connect 2 0 1 0;
#X connect 4 0 7 0;
#X connect 5 0 0 0;
#X connect 6 0 4 0;
#X connect 6 1 4 1;
#X connect 7 0 1 0;
#X restore 283 538 pd andyhatvel;
#N canvas 471 22 450 300 clapvel 0;
#X obj 163 183 outlet;
#X obj 162 142 / 127;
#X obj 164 72 inlet;
#X obj 17 82 pack f f;
#X msg 163 162 7 \$1;
#X obj 13 50 notein 19;
#X obj 17 106 route 40;
#X connect 1 0 4 0;
#X connect 2 0 1 0;
#X connect 3 0 6 0;
#X connect 4 0 0 0;
#X connect 5 0 3 0;
#X connect 5 1 3 1;
#X connect 6 0 1 0;
#X restore 460 539 pd clapvel;
#N canvas 930 108 450 300 cowvel 0;
#X obj 173 193 outlet;
#X obj 172 152 / 127;
#X obj 174 82 inlet;
#X obj 27 92 pack f f;
#X obj 23 60 notein 19;
#X msg 173 172 5 \$1;
#X obj 27 116 route 43;
#X connect 1 0 5 0;
#X connect 2 0 1 0;
#X connect 3 0 6 0;
#X connect 4 0 3 0;
#X connect 4 1 3 1;
#X connect 5 0 0 0;
#X connect 6 0 1 0;
#X restore 648 560 pd cowvel;
#N canvas 734 39 450 300 bellvel 0;
#X obj 183 203 outlet;
#X obj 182 162 / 127;
#X obj 184 92 inlet;
#X obj 37 102 pack f f;
#X obj 33 70 notein 19;
#X msg 183 182 2 \$1;
#X obj 37 126 route 51;
#X connect 1 0 5 0;
#X connect 2 0 1 0;
#X connect 3 0 6 0;
#X connect 4 0 3 0;
#X connect 4 1 3 1;
#X connect 5 0 0 0;
#X connect 6 0 1 0;
#X restore 649 453 pd bellvel;
#N canvas 0 22 450 300 cymvel 0;
#X obj 193 213 outlet;
#X obj 192 172 / 127;
#X obj 194 102 inlet;
#X obj 47 112 pack f f;
#X obj 43 80 notein 19;
#X msg 193 192 5 \$1;
#X obj 47 136 route 44;
#X connect 1 0 5 0;
#X connect 2 0 1 0;
#X connect 3 0 6 0;
#X connect 4 0 3 0;
#X connect 4 1 3 1;
#X connect 5 0 0 0;
#X connect 6 0 1 0;
#X restore 647 191 pd cymvel;
#N canvas 28 358 450 300 cym2vel 0;
#X obj 183 203 outlet;
#X obj 182 162 / 127;
#X obj 184 92 inlet;
#X obj 37 102 pack f f;
#X obj 33 70 notein 19;
#X msg 183 182 5 \$1;
#X obj 37 126 route 46;
#X connect 1 0 5 0;
#X connect 2 0 1 0;
#X connect 3 0 6 0;
#X connect 4 0 3 0;
#X connect 4 1 3 1;
#X connect 5 0 0 0;
#X connect 6 0 1 0;
#X restore 683 312 pd cym2vel;
#X text 9 75 0;
#X text 50 71 1;
#X text 90 73 2;
#X text 130 72 3;
#X text 175 70 4;
#X text 213 70 5;
#X text 254 72 6;
#X text 294 71 7;
#X text 335 72 8;
#X text 376 73 9;
#X text 414 72 10;
#X text 456 72 11;
#X text 497 72 12;
#X text 539 72 13;
#X text 580 70 14;
#X text 621 71 15;
#X text 660 70 16;
#X msg 271 245 0 \$1;
#X obj 271 225 line 0 20;
#X msg 272 205 0.5;
#X msg 227 205 0.2 20;
#N canvas 1273 248 452 382 backup 0;
#X msg 20 40 \; SSSAD /sd/controls 0 0.506949 1 0.8 2 0.7 3 0.6 4 0.55
5 0.42 6 0.55 7 0.6 8 0.35 9 0.45 \; SSSAD /cow/controls 0 0.367797
1 0.355932 2 0.745763 3 0.486441 4 0 5 0.49 \; SSSAD /bell/controls
0 0.605085 1 0.937288 2 0.4 \; SSSAD /andyhat/controls 0 0.428814 1
0.813559 2 0.883898 3 0.561695 4 0.41322 5 0.568644 6 0.254237 7 0.586441
\; SSSAD /cym1/controls 0 0.44 1 0.717797 2 0.254237 3 0.615254 4 0.836441
5 0.45 \; SSSAD /cym2/controls 0 0.406102 1 0.65 2 0.673729 3 0.7 4
0.666949 5 0.500847 \; SSSAD /clap/controls 0 0.566949 1 0.284746 2
0.864407 3 0.59322 4 0.40678 5 0.457627 6 0.508475 7 0.367797 \; SSSAD
/bd/controls 0 0.271186 1 0.576271 2 0.271186 3 0.491525 4 0.677966
5 0.762712 6 0.59322 7 0.59322 \; SSSAD /hh/controls 0 0.382203 1 1
2 0.576271 3 0.820339 4 0.677966 5 0.0491525 6 0.576271 7 0.423729
8 0.813559 9 0.610169 10 0.915254 11 0.569492 \; SSSAD_ADMIN set \;
;
#X obj 20 20 inlet;
#X msg 72 17 set;
#X connect 1 0 0 0;
#X connect 2 0 0 0;
#X restore 767 56 pd backup;
#X msg 273 516 0 \$1;
#X obj 273 496 line 0 20;
#X msg 274 476 0.5;
#X msg 301 476 0.6 20;
#X msg 229 476 0.2 20;
#X obj 758 135 tgl 15 0 empty empty empty 17 7 0 10 -262144 -1 -1 1
1;
#X obj 758 153 metro 500;
#X obj 820 120 vsl 15 50 300 1000 0 0 empty empty empty 0 -9 0 10 -262144
-1 -1 2500 1;
#N canvas 990 22 450 300 stellrum1 0;
#X obj 126 51 / 127;
#X obj 163 51 / 127;
#X obj 200 51 / 127;
#X obj 237 51 / 127;
#X msg 128 92 0 \$1;
#X msg 202 92 2 \$1;
#X msg 165 92 1 \$1;
#X msg 239 92 3 \$1;
#X floatatom 125 69 5 0 0 0 - - -;
#X obj 164 11 lpd8-bk1-nogui;
#X floatatom 168 70 5 0 0 0 - - -;
#X floatatom 205 70 5 0 0 0 - - -;
#X floatatom 242 70 5 0 0 0 - - -;
#X obj 126 121 / 127;
#X obj 163 121 / 127;
#X obj 200 121 / 127;
#X obj 237 121 / 127;
#X floatatom 125 139 5 0 0 0 - - -;
#X floatatom 168 140 5 0 0 0 - - -;
#X floatatom 205 140 5 0 0 0 - - -;
#X floatatom 242 140 5 0 0 0 - - -;
#X obj 207 229 outlet;
#X msg 128 162 4 \$1;
#X msg 165 162 5 \$1;
#X msg 202 162 6 \$1;
#X msg 239 162 7 \$1;
#X connect 0 0 8 0;
#X connect 1 0 10 0;
#X connect 2 0 11 0;
#X connect 3 0 12 0;
#X connect 4 0 21 0;
#X connect 5 0 21 0;
#X connect 6 0 21 0;
#X connect 7 0 21 0;
#X connect 8 0 4 0;
#X connect 9 0 0 0;
#X connect 9 1 1 0;
#X connect 9 2 2 0;
#X connect 9 3 3 0;
#X connect 9 4 13 0;
#X connect 9 5 14 0;
#X connect 9 6 15 0;
#X connect 9 7 16 0;
#X connect 10 0 6 0;
#X connect 11 0 5 0;
#X connect 12 0 7 0;
#X connect 13 0 17 0;
#X connect 14 0 18 0;
#X connect 15 0 19 0;
#X connect 16 0 20 0;
#X connect 17 0 22 0;
#X connect 18 0 23 0;
#X connect 19 0 24 0;
#X connect 20 0 25 0;
#X connect 22 0 21 0;
#X connect 23 0 21 0;
#X connect 24 0 21 0;
#X connect 25 0 21 0;
#X restore 80 209 pd stellrum1;
#N canvas 0 22 450 300 stellrum2 0;
#X obj 136 61 / 127;
#X obj 173 61 / 127;
#X obj 210 61 / 127;
#X obj 247 61 / 127;
#X msg 138 102 0 \$1;
#X msg 212 102 2 \$1;
#X msg 175 102 1 \$1;
#X msg 249 102 3 \$1;
#X floatatom 135 79 5 0 0 0 - - -;
#X floatatom 178 80 5 0 0 0 - - -;
#X floatatom 215 80 5 0 0 0 - - -;
#X floatatom 252 80 5 0 0 0 - - -;
#X obj 136 131 / 127;
#X obj 173 131 / 127;
#X obj 210 131 / 127;
#X obj 247 131 / 127;
#X floatatom 135 149 5 0 0 0 - - -;
#X floatatom 178 150 5 0 0 0 - - -;
#X floatatom 215 150 5 0 0 0 - - -;
#X floatatom 252 150 5 0 0 0 - - -;
#X obj 217 239 outlet;
#X msg 138 172 4 \$1;
#X msg 175 172 5 \$1;
#X msg 212 172 6 \$1;
#X msg 249 172 7 \$1;
#X obj 174 21 lpd8-bk2-nogui;
#X connect 0 0 8 0;
#X connect 1 0 9 0;
#X connect 2 0 10 0;
#X connect 3 0 11 0;
#X connect 4 0 20 0;
#X connect 5 0 20 0;
#X connect 6 0 20 0;
#X connect 7 0 20 0;
#X connect 8 0 4 0;
#X connect 9 0 6 0;
#X connect 10 0 5 0;
#X connect 11 0 7 0;
#X connect 12 0 16 0;
#X connect 13 0 17 0;
#X connect 14 0 18 0;
#X connect 15 0 19 0;
#X connect 16 0 21 0;
#X connect 17 0 22 0;
#X connect 18 0 23 0;
#X connect 19 0 24 0;
#X connect 21 0 20 0;
#X connect 22 0 20 0;
#X connect 23 0 20 0;
#X connect 24 0 20 0;
#X connect 25 0 0 0;
#X connect 25 1 1 0;
#X connect 25 2 2 0;
#X connect 25 3 3 0;
#X connect 25 4 12 0;
#X connect 25 5 13 0;
#X connect 25 6 14 0;
#X connect 25 7 15 0;
#X restore 312 245 pd stellrum2;
#N canvas 452 26 450 300 stellrum3 0;
#X obj 136 61 / 127;
#X obj 173 61 / 127;
#X obj 210 61 / 127;
#X obj 247 61 / 127;
#X msg 138 102 0 \$1;
#X msg 212 102 2 \$1;
#X msg 175 102 1 \$1;
#X msg 249 102 3 \$1;
#X floatatom 135 79 5 0 0 0 - - -;
#X floatatom 178 80 5 0 0 0 - - -;
#X floatatom 215 80 5 0 0 0 - - -;
#X floatatom 252 80 5 0 0 0 - - -;
#X obj 136 131 / 127;
#X obj 173 131 / 127;
#X obj 210 131 / 127;
#X obj 247 131 / 127;
#X floatatom 135 149 5 0 0 0 - - -;
#X floatatom 178 150 5 0 0 0 - - -;
#X floatatom 215 150 5 0 0 0 - - -;
#X floatatom 252 150 5 0 0 0 - - -;
#X obj 217 239 outlet;
#X msg 138 172 4 \$1;
#X msg 175 172 5 \$1;
#X msg 212 172 6 \$1;
#X msg 249 172 7 \$1;
#X obj 174 21 lpd8-bk3-nogui;
#X connect 0 0 8 0;
#X connect 1 0 9 0;
#X connect 2 0 10 0;
#X connect 3 0 11 0;
#X connect 4 0 20 0;
#X connect 5 0 20 0;
#X connect 6 0 20 0;
#X connect 7 0 20 0;
#X connect 8 0 4 0;
#X connect 9 0 6 0;
#X connect 10 0 5 0;
#X connect 11 0 7 0;
#X connect 12 0 16 0;
#X connect 13 0 17 0;
#X connect 14 0 18 0;
#X connect 15 0 19 0;
#X connect 16 0 21 0;
#X connect 17 0 22 0;
#X connect 18 0 23 0;
#X connect 19 0 24 0;
#X connect 21 0 20 0;
#X connect 22 0 20 0;
#X connect 23 0 20 0;
#X connect 24 0 20 0;
#X connect 25 0 0 0;
#X connect 25 1 1 0;
#X connect 25 2 2 0;
#X connect 25 3 3 0;
#X connect 25 4 12 0;
#X connect 25 5 13 0;
#X connect 25 6 14 0;
#X connect 25 7 15 0;
#X restore 310 516 pd stellrum3;
#N canvas 971 46 450 300 stellrum4 0;
#X obj 136 61 / 127;
#X obj 173 61 / 127;
#X obj 210 61 / 127;
#X obj 247 61 / 127;
#X msg 138 102 0 \$1;
#X msg 212 102 2 \$1;
#X msg 175 102 1 \$1;
#X msg 249 102 3 \$1;
#X floatatom 135 79 5 0 0 0 - - -;
#X floatatom 178 80 5 0 0 0 - - -;
#X floatatom 215 80 5 0 0 0 - - -;
#X floatatom 252 80 5 0 0 0 - - -;
#X obj 136 131 / 127;
#X obj 173 131 / 127;
#X obj 210 131 / 127;
#X obj 247 131 / 127;
#X floatatom 135 149 5 0 0 0 - - -;
#X floatatom 178 150 5 0 0 0 - - -;
#X floatatom 215 150 5 0 0 0 - - -;
#X floatatom 252 150 5 0 0 0 - - -;
#X obj 217 239 outlet;
#X msg 138 172 4 \$1;
#X msg 175 172 5 \$1;
#X msg 212 172 6 \$1;
#X msg 249 172 7 \$1;
#X obj 174 21 lpd8-bk4-nogui;
#X connect 0 0 8 0;
#X connect 1 0 9 0;
#X connect 2 0 10 0;
#X connect 3 0 11 0;
#X connect 4 0 20 0;
#X connect 5 0 20 0;
#X connect 6 0 20 0;
#X connect 7 0 20 0;
#X connect 8 0 4 0;
#X connect 9 0 6 0;
#X connect 10 0 5 0;
#X connect 11 0 7 0;
#X connect 12 0 16 0;
#X connect 13 0 17 0;
#X connect 14 0 18 0;
#X connect 15 0 19 0;
#X connect 16 0 21 0;
#X connect 17 0 22 0;
#X connect 18 0 23 0;
#X connect 19 0 24 0;
#X connect 21 0 20 0;
#X connect 22 0 20 0;
#X connect 23 0 20 0;
#X connect 24 0 20 0;
#X connect 25 0 0 0;
#X connect 25 1 1 0;
#X connect 25 2 2 0;
#X connect 25 3 3 0;
#X connect 25 4 12 0;
#X connect 25 5 13 0;
#X connect 25 6 14 0;
#X connect 25 7 15 0;
#X restore 431 159 pd stellrum4;
#X obj 174 85 bng 15 250 50 0 empty empty empty 17 7 0 10 -262144 -1
-1;
#X obj 211 86 bng 15 250 50 0 empty empty empty 17 7 0 10 -262144 -1
-1;
#X obj 417 88 bng 15 250 50 0 empty empty empty 17 7 0 10 -262144 -1
-1;
#X obj 460 88 bng 15 250 50 0 empty empty empty 17 7 0 10 -262144 -1
-1;
#X obj 499 88 bng 15 250 50 0 empty empty empty 17 7 0 10 -262144 -1
-1;
#X obj 581 86 bng 15 250 50 0 empty empty empty 17 7 0 10 -262144 -1
-1;
#X obj 624 87 bng 15 250 50 0 empty empty empty 17 7 0 10 -262144 -1
-1;
#X obj 662 87 bng 15 250 50 0 empty empty empty 17 7 0 10 -262144 -1
-1;
#X obj 538 88 bng 15 250 50 0 empty empty empty 17 7 0 10 -262144 -1
-1;
#X obj 253 87 bng 15 250 50 0 empty empty empty 17 7 0 10 -262144 -1
-1;
#X obj 296 87 bng 15 250 50 0 empty empty empty 17 7 0 10 -262144 -1
-1;
#X obj 335 88 bng 15 250 50 0 empty empty empty 17 7 0 10 -262144 -1
-1;
#X obj 374 88 bng 15 250 50 0 empty empty empty 17 7 0 10 -262144 -1
-1;
#X obj 131 87 bng 15 250 50 0 empty empty empty 17 7 0 10 -262144 -1
-1;
#X obj 10 88 bng 15 250 50 0 empty empty empty 17 7 0 10 -262144 -1
-1;
#X obj 49 87 bng 15 250 50 0 empty empty empty 17 7 0 10 -262144 -1
-1;
#X obj 88 87 bng 15 250 50 0 empty empty empty 17 7 0 10 -262144 -1
-1;
#N canvas 271 27 272 229 hhpedal 0;
#X obj 58 19 inlet;
#X obj 58 43 moses 0.5;
#X msg 167 86 7 0.423729;
#X obj 58 123 outlet;
#X text 124 43 closed;
#X text 23 41 open;
#X msg 58 66 7 0.762712;
#X obj 174 163 outlet;
#X msg 197 126 5 0.423729;
#X msg 119 127 5 0.568644;
#X connect 0 0 1 0;
#X connect 1 0 6 0;
#X connect 1 0 9 0;
#X connect 1 1 2 0;
#X connect 1 1 8 0;
#X connect 2 0 3 0;
#X connect 6 0 3 0;
#X connect 8 0 7 0;
#X connect 9 0 7 0;
#X restore 664 146 pd hhpedal;
#X msg 299 205 0.58 20;
#X text 748 234 comment;
#X obj 812 176 / 2;
#X obj 772 175 delay;
#X floatatom 780 135 5 0 0 0 - - -;
#X obj 39 561 808_local /andyhat;
#N canvas 82 581 436 175 saveandyhat 0;
#X obj 30 30 inlet;
#X msg 82 27 set;
#X msg 27 64 \; SSSAD /andyhat/controls 0 0.157458 1 0.354407 2 0.19678
3 0.267797 4 0.0866102 5 0.45661 6 0.133898 7 0.37 \; SSSAD_ADMIN set
\;;
#X connect 0 0 2 0;
#X connect 1 0 2 0;
#X restore 40 629 pd saveandyhat;
#X obj 412 250 808_local /hh;
#N canvas 547 304 465 309 savehh 0;
#X obj 40 40 inlet;
#X msg 92 37 set;
#X msg 40 60 SSSAD /hh/controls 0 0.602542 1 0.864407 2 0.745763 3
0.769492 4 0.610169 5 0.116949 6 0.576271 7 0.762712 8 0.169492 9 0.0847458
10 0.932203 11 0.569492 \; SSSAD /hh/controls 0 0.602542 1 0.864407
2 0.745763 3 0.769492 4 0.610169 5 0.116949 6 0.576271 7 0.762712 8
0.169492 9 0.0847458 10 0.932203 11 0.569492 \; SSSAD /hh/controls
0 0.602542 1 0.864407 2 0.745763 3 0.769492 4 0.610169 5 0.116949 6
0.576271 7 0.762712 8 0.169492 9 0.0847458 10 0.932203 11 0.569492
\;;
#X connect 0 0 2 0;
#X connect 1 0 2 0;
#X restore 412 316 pd savehh;
#X obj 21 434 808_local /bd;
#N canvas 0 22 466 305 savebd 0;
#X obj 50 50 inlet;
#X msg 102 47 set;
#X msg 50 70 \; SSSAD /bd/controls 0 0.271186 1 0.576271 2 0.271186
3 0.491525 4 0.677966 5 0.694915 6 0.59322 7 0.59322 \; SSSAD_ADMIN
set \; SSSAD /bd/controls 0 0.271186 1 0.576271 2 0.271186 3 0.491525
4 0.677966 5 0.694915 6 0.59322 7 0.59322 \;;
#X connect 0 0 2 0;
#X connect 1 0 2 0;
#X restore 21 500 pd savebd;
#X obj 275 141 guitar1;
#X obj 91 141 hat1;
#X obj 127 140 hat2;
#X obj 90 166 throw~ bum;
#X obj 274 163 throw~ bum;
#X obj 785 201 bpm2metro;
#X floatatom 784 223 5 0 0 0 - - -;
#X connect 0 0 92 0;
#X connect 0 0 35 0;
#X connect 0 1 93 0;
#X connect 0 2 94 0;
#X connect 0 3 91 0;
#X connect 0 4 78 0;
#X connect 0 5 79 0;
#X connect 0 6 87 0;
#X connect 0 7 88 0;
#X connect 0 8 89 0;
#X connect 0 9 90 0;
#X connect 0 10 80 0;
#X connect 0 11 81 0;
#X connect 0 12 82 0;
#X connect 0 13 86 0;
#X connect 0 14 83 0;
#X connect 0 15 84 0;
#X connect 0 16 85 0;
#X connect 2 0 3 0;
#X connect 4 0 17 0;
#X connect 5 0 15 0;
#X connect 6 0 16 0;
#X connect 7 0 20 0;
#X connect 8 0 21 0;
#X connect 9 0 22 0;
#X connect 10 0 18 0;
#X connect 11 0 19 0;
#X connect 14 0 13 0;
#X connect 15 0 25 0;
#X connect 16 0 27 0;
#X connect 17 0 26 0;
#X connect 18 0 28 0;
#X connect 19 0 30 0;
#X connect 20 0 31 0;
#X connect 21 0 33 0;
#X connect 22 0 32 0;
#X connect 23 0 29 0;
#X connect 24 0 23 0;
#X connect 35 0 16 1;
#X connect 35 0 6 0;
#X connect 36 0 15 1;
#X connect 36 0 5 0;
#X connect 37 0 23 1;
#X connect 37 0 24 0;
#X connect 38 0 20 1;
#X connect 38 0 7 0;
#X connect 39 0 17 1;
#X connect 39 0 4 0;
#X connect 40 0 22 1;
#X connect 40 0 9 0;
#X connect 41 0 21 1;
#X connect 41 0 8 0;
#X connect 42 0 19 1;
#X connect 42 0 11 0;
#X connect 43 0 18 1;
#X connect 43 0 10 0;
#X connect 61 0 15 1;
#X connect 61 0 5 0;
#X connect 62 0 61 0;
#X connect 63 0 62 0;
#X connect 64 0 62 0;
#X connect 66 0 20 1;
#X connect 66 0 7 0;
#X connect 67 0 66 0;
#X connect 68 0 67 0;
#X connect 69 0 67 0;
#X connect 70 0 67 0;
#X connect 71 0 72 0;
#X connect 72 0 99 0;
#X connect 72 0 6 0;
#X connect 73 0 72 1;
#X connect 73 0 100 0;
#X connect 73 0 98 0;
#X connect 95 0 15 1;
#X connect 95 1 20 1;
#X connect 96 0 62 0;
#X connect 98 0 99 1;
#X connect 99 0 20 0;
#X connect 100 0 112 0;
#X connect 101 0 102 0;
#X connect 103 0 104 0;
#X connect 105 0 106 0;
#X connect 107 0 111 0;
#X connect 108 0 110 0;
#X connect 109 0 110 0;
#X connect 112 0 113 0;
