#N canvas 491 34 462 378 10;
#X obj 64 147 mapping/tolist;
#X obj 67 101 select 10 13;
#X obj 94 184 pddp/print;
#X obj 66 221 unpack float symbol symbol symbol;
#X floatatom 66 256 5 0 0 0 - - -;
#X obj 121 258 pddp/print;
#X obj 155 291 pddp/print;
#X obj 188 326 pddp/print;
#X msg 72 36 open 4;
#X obj 67 69 comport 4 57600;
#X connect 0 0 2 0;
#X connect 0 0 3 0;
#X connect 1 0 0 1;
#X connect 1 2 0 0;
#X connect 3 0 4 0;
#X connect 3 1 5 0;
#X connect 3 2 6 0;
#X connect 3 3 7 0;
#X connect 8 0 9 0;
#X connect 9 0 1 0;
