#N canvas 258 22 1182 800 10;
#X obj 403 718 perk-gunshot /key;
#X obj 17 -3 arbum;
#X obj 692 -3 pddp/dsp;
#X obj 41 362 throw~ drums;
#X obj 228 409 throw~ drums;
#X obj 417 364 throw~ drums;
#X obj 604 387 throw~ drums;
#X obj 20 611 throw~ drums;
#X obj 214 554 throw~ drums;
#X obj 406 575 throw~ drums;
#X obj 599 534 throw~ drums;
#X obj 20 767 throw~ drums;
#X obj 213 766 throw~ drums;
#X obj 404 766 throw~ drums;
#X obj 593 567 midimonitor-big;
#X obj 898 149 ctlin 1 1;
#X obj 922 42 tgl 15 0 empty empty empty 17 7 0 10 -262144 -1 -1 0
1;
#X obj 922 65 metro 500;
#X obj 921 89 s bambam;
#X obj 921 108 r bambam;
#X obj 975 19 ctlin 7 1;
#X obj 972 42 mtof;
#X obj 959 149 ctlin 2 1;
#X obj 1020 149 ctlin 3 1;
#X obj 1082 149 ctlin 4 1;
#X obj 898 189 ctlin 1 1;
#X obj 959 189 ctlin 2 1;
#X obj 1020 189 ctlin 3 1;
#X obj 1082 189 ctlin 4 1;
#X obj 12 162 vsl 15 50 200 1000 0 0 empty empty empty 0 -9 0 10 -262144
-1 -1 0 1;
#N canvas 990 22 450 300 stellrum1 0;
#X obj 126 51 / 127;
#X obj 163 51 / 127;
#X obj 200 51 / 127;
#X obj 237 51 / 127;
#X msg 128 92 0 \$1;
#X msg 202 92 2 \$1;
#X msg 165 92 1 \$1;
#X msg 239 92 3 \$1;
#X floatatom 125 69 5 0 0 0 - - -;
#X obj 164 11 lpd8-bk1-nogui;
#X floatatom 168 70 5 0 0 0 - - -;
#X floatatom 205 70 5 0 0 0 - - -;
#X floatatom 242 70 5 0 0 0 - - -;
#X obj 126 121 / 127;
#X obj 163 121 / 127;
#X obj 200 121 / 127;
#X obj 237 121 / 127;
#X floatatom 125 139 5 0 0 0 - - -;
#X floatatom 168 140 5 0 0 0 - - -;
#X floatatom 205 140 5 0 0 0 - - -;
#X floatatom 242 140 5 0 0 0 - - -;
#X obj 207 229 outlet;
#X msg 128 162 4 \$1;
#X msg 165 162 5 \$1;
#X msg 202 162 6 \$1;
#X msg 239 162 7 \$1;
#X connect 0 0 8 0;
#X connect 1 0 10 0;
#X connect 2 0 11 0;
#X connect 3 0 12 0;
#X connect 4 0 21 0;
#X connect 5 0 21 0;
#X connect 6 0 21 0;
#X connect 7 0 21 0;
#X connect 8 0 4 0;
#X connect 9 0 0 0;
#X connect 9 1 1 0;
#X connect 9 2 2 0;
#X connect 9 3 3 0;
#X connect 9 4 13 0;
#X connect 9 5 14 0;
#X connect 9 6 15 0;
#X connect 9 7 16 0;
#X connect 10 0 6 0;
#X connect 11 0 5 0;
#X connect 12 0 7 0;
#X connect 13 0 17 0;
#X connect 14 0 18 0;
#X connect 15 0 19 0;
#X connect 16 0 20 0;
#X connect 17 0 22 0;
#X connect 18 0 23 0;
#X connect 19 0 24 0;
#X connect 20 0 25 0;
#X connect 22 0 21 0;
#X connect 23 0 21 0;
#X connect 24 0 21 0;
#X connect 25 0 21 0;
#X restore 65 213 pd stellrum1;
#N canvas 0 22 450 300 stellrum2 0;
#X obj 136 61 / 127;
#X obj 173 61 / 127;
#X obj 210 61 / 127;
#X obj 247 61 / 127;
#X msg 138 102 0 \$1;
#X msg 212 102 2 \$1;
#X msg 175 102 1 \$1;
#X msg 249 102 3 \$1;
#X floatatom 135 79 5 0 0 0 - - -;
#X floatatom 178 80 5 0 0 0 - - -;
#X floatatom 215 80 5 0 0 0 - - -;
#X floatatom 252 80 5 0 0 0 - - -;
#X obj 136 131 / 127;
#X obj 173 131 / 127;
#X obj 210 131 / 127;
#X obj 247 131 / 127;
#X floatatom 135 149 5 0 0 0 - - -;
#X floatatom 178 150 5 0 0 0 - - -;
#X floatatom 215 150 5 0 0 0 - - -;
#X floatatom 252 150 5 0 0 0 - - -;
#X obj 217 239 outlet;
#X msg 138 172 4 \$1;
#X msg 175 172 5 \$1;
#X msg 212 172 6 \$1;
#X msg 249 172 7 \$1;
#X obj 174 21 lpd8-bk2-nogui;
#X connect 0 0 8 0;
#X connect 1 0 9 0;
#X connect 2 0 10 0;
#X connect 3 0 11 0;
#X connect 4 0 20 0;
#X connect 5 0 20 0;
#X connect 6 0 20 0;
#X connect 7 0 20 0;
#X connect 8 0 4 0;
#X connect 9 0 6 0;
#X connect 10 0 5 0;
#X connect 11 0 7 0;
#X connect 12 0 16 0;
#X connect 13 0 17 0;
#X connect 14 0 18 0;
#X connect 15 0 19 0;
#X connect 16 0 21 0;
#X connect 17 0 22 0;
#X connect 18 0 23 0;
#X connect 19 0 24 0;
#X connect 21 0 20 0;
#X connect 22 0 20 0;
#X connect 23 0 20 0;
#X connect 24 0 20 0;
#X connect 25 0 0 0;
#X connect 25 1 1 0;
#X connect 25 2 2 0;
#X connect 25 3 3 0;
#X connect 25 4 12 0;
#X connect 25 5 13 0;
#X connect 25 6 14 0;
#X connect 25 7 15 0;
#X restore 268 219 pd stellrum2;
#N canvas 452 26 450 300 stellrum3 0;
#X obj 136 61 / 127;
#X obj 173 61 / 127;
#X obj 210 61 / 127;
#X obj 247 61 / 127;
#X msg 138 102 0 \$1;
#X msg 212 102 2 \$1;
#X msg 175 102 1 \$1;
#X msg 249 102 3 \$1;
#X floatatom 135 79 5 0 0 0 - - -;
#X floatatom 178 80 5 0 0 0 - - -;
#X floatatom 215 80 5 0 0 0 - - -;
#X floatatom 252 80 5 0 0 0 - - -;
#X obj 136 131 / 127;
#X obj 173 131 / 127;
#X obj 210 131 / 127;
#X obj 247 131 / 127;
#X floatatom 135 149 5 0 0 0 - - -;
#X floatatom 178 150 5 0 0 0 - - -;
#X floatatom 215 150 5 0 0 0 - - -;
#X floatatom 252 150 5 0 0 0 - - -;
#X obj 217 239 outlet;
#X msg 138 172 4 \$1;
#X msg 175 172 5 \$1;
#X msg 212 172 6 \$1;
#X msg 249 172 7 \$1;
#X obj 174 21 lpd8-bk3-nogui;
#X connect 0 0 8 0;
#X connect 1 0 9 0;
#X connect 2 0 10 0;
#X connect 3 0 11 0;
#X connect 4 0 20 0;
#X connect 5 0 20 0;
#X connect 6 0 20 0;
#X connect 7 0 20 0;
#X connect 8 0 4 0;
#X connect 9 0 6 0;
#X connect 10 0 5 0;
#X connect 11 0 7 0;
#X connect 12 0 16 0;
#X connect 13 0 17 0;
#X connect 14 0 18 0;
#X connect 15 0 19 0;
#X connect 16 0 21 0;
#X connect 17 0 22 0;
#X connect 18 0 23 0;
#X connect 19 0 24 0;
#X connect 21 0 20 0;
#X connect 22 0 20 0;
#X connect 23 0 20 0;
#X connect 24 0 20 0;
#X connect 25 0 0 0;
#X connect 25 1 1 0;
#X connect 25 2 2 0;
#X connect 25 3 3 0;
#X connect 25 4 12 0;
#X connect 25 5 13 0;
#X connect 25 6 14 0;
#X connect 25 7 15 0;
#X restore 607 185 pd stellrum3;
#N canvas 971 46 450 300 stellrum4 0;
#X obj 136 61 / 127;
#X obj 173 61 / 127;
#X obj 210 61 / 127;
#X obj 247 61 / 127;
#X msg 138 102 0 \$1;
#X msg 212 102 2 \$1;
#X msg 175 102 1 \$1;
#X msg 249 102 3 \$1;
#X floatatom 135 79 5 0 0 0 - - -;
#X floatatom 178 80 5 0 0 0 - - -;
#X floatatom 215 80 5 0 0 0 - - -;
#X floatatom 252 80 5 0 0 0 - - -;
#X obj 136 131 / 127;
#X obj 173 131 / 127;
#X obj 210 131 / 127;
#X obj 247 131 / 127;
#X floatatom 135 149 5 0 0 0 - - -;
#X floatatom 178 150 5 0 0 0 - - -;
#X floatatom 215 150 5 0 0 0 - - -;
#X floatatom 252 150 5 0 0 0 - - -;
#X obj 217 239 outlet;
#X msg 138 172 4 \$1;
#X msg 175 172 5 \$1;
#X msg 212 172 6 \$1;
#X msg 249 172 7 \$1;
#X obj 174 21 lpd8-bk4-nogui;
#X connect 0 0 8 0;
#X connect 1 0 9 0;
#X connect 2 0 10 0;
#X connect 3 0 11 0;
#X connect 4 0 20 0;
#X connect 5 0 20 0;
#X connect 6 0 20 0;
#X connect 7 0 20 0;
#X connect 8 0 4 0;
#X connect 9 0 6 0;
#X connect 10 0 5 0;
#X connect 11 0 7 0;
#X connect 12 0 16 0;
#X connect 13 0 17 0;
#X connect 14 0 18 0;
#X connect 15 0 19 0;
#X connect 16 0 21 0;
#X connect 17 0 22 0;
#X connect 18 0 23 0;
#X connect 19 0 24 0;
#X connect 21 0 20 0;
#X connect 22 0 20 0;
#X connect 23 0 20 0;
#X connect 24 0 20 0;
#X connect 25 0 0 0;
#X connect 25 1 1 0;
#X connect 25 2 2 0;
#X connect 25 3 3 0;
#X connect 25 4 12 0;
#X connect 25 5 13 0;
#X connect 25 6 14 0;
#X connect 25 7 15 0;
#X restore 40 421 pd stellrum4;
#N canvas 0 22 450 300 volume 0;
#X obj 107 120 knob 32 32 0 127 0 0 empty empty empty 0 -8 0 8 -262144
-1 -1 1400 1;
#X obj 107 162 / 127;
#X obj 107 182 pack \$1 50;
#X obj 107 205 vline~;
#X obj 107 227 outlet~;
#X obj 106 62 inlet;
#X connect 0 0 1 0;
#X connect 1 0 2 0;
#X connect 2 0 3 0;
#X connect 3 0 4 0;
#X connect 5 0 0 0;
#X coords 0 -1 1 1 65 60 1 100 100;
#X restore 691 24 pd volume;
#N canvas 990 22 450 300 parked 0;
#X obj 15 52 bass1;
#X obj 14 74 bass2;
#X obj 13 197 kick;
#X obj 14 102 guitar2;
#X obj 302 227 crash;
#X obj 165 226 hat1;
#X obj 10 225 snare1;
#X obj 58 225 snare2;
#X obj 251 225 guitar1;
#X obj 118 225 hat2;
#X obj 133 123 tr808-cp~;
#X msg 133 104 trigger \$1;
#X msg 204 105 gain \$1;
#X obj 11 133 hitom;
#X obj 53 133 lotom;
#X obj 133 143 throw~ drums;
#X connect 10 0 15 0;
#X connect 11 0 10 0;
#X connect 12 0 10 0;
#X restore 691 111 pd parked;
#X obj 691 90 s~ \$0-mastervol;
#N canvas 144 461 452 382 savedata 0;
#X msg 20 40 \; SSSAD /hitom/controls 0 0.498983 1 0.49 \; SSSAD /lotom/controls
0 0.49 1 0.49 \; SSSAD /bell/controls 0 0.3 1 0.7 2 0.4 \; SSSAD /cow/controls
0 0.3 1 0.1 2 0.75 3 0.3 4 0 5 0.49 \; SSSAD /sd/controls 0 0.519661
1 0.125932 2 0.149661 3 0.204746 4 0.28339 5 0.661356 6 0.401525 7
0.677119 8 0.35 9 0.45 \; SSSAD /hh/controls 0 0.45 1 1 2 0.9 3 0.6
4 0.55 5 0.1 6 0.4 7 0.55 8 0.7 9 0.6 10 0.8 11 0.4 \; SSSAD /ahh/controls
0 0.472373 1 0.897627 2 0.834576 3 0.763729 4 0.787458 5 0.28339 6
0.228305 7 0.385763 \; SSSAD /bum/controls 0 0.511864 1 0.622034 2
0.834576 3 0.448814 4 0.834576 5 0.346441 6 0.37 7 0.330678 \; SSSAD
/clp/controls 0 0.55 1 0.2 2 0.9 3 0.15 4 0.3 5 0.3 6 0.59 7 0.0966102
\; SSSAD /cym/controls 0 0.44 1 0.65 2 0.25 3 0.7 4 0.65 5 0.45 \;
SSSAD /cy2/controls 0 0.44 1 0.65 2 0.25 3 0.7 4 0.65 5 0.45 \; SSSAD
/key/controls 0 0.627119 1 0.908475 \; SSSAD_ADMIN set \;;
#X obj 20 20 inlet;
#X msg 72 17 set;
#X connect 1 0 0 0;
#X connect 2 0 0 0;
#X restore 802 55 pd savedata;
#X obj 801 -8 808_global;
#N canvas 0 22 450 300 mastervol 0;
#X obj 43 89 dac~;
#X obj 46 69 *~;
#X obj 46 30 catch~ drums;
#X obj 61 49 r~ \$0-mastervol;
#X connect 1 0 0 0;
#X connect 1 0 0 1;
#X connect 2 0 1 0;
#X connect 3 0 1 1;
#X restore 797 110 pd mastervol;
#X text 788 93 bonkers/drumbonk;
#N canvas 144 461 452 382 backup 0;
#X msg 20 40 \; SSSAD /sd/controls 0 0.506949 1 0.8 2 0.7 3 0.6 4 0.55
5 0.42 6 0.55 7 0.6 8 0.35 9 0.45 \; SSSAD /cow/controls 0 0.367797
1 0.355932 2 0.745763 3 0.486441 4 0 5 0.49 \; SSSAD /bell/controls
0 0.605085 1 0.937288 2 0.4 \; SSSAD /andyhat/controls 0 0.428814 1
0.813559 2 0.883898 3 0.561695 4 0.41322 5 0.568644 6 0.254237 7 0.586441
\; SSSAD /cym1/controls 0 0.44 1 0.717797 2 0.254237 3 0.615254 4 0.836441
5 0.45 \; SSSAD /cym2/controls 0 0.406102 1 0.65 2 0.673729 3 0.7 4
0.666949 5 0.500847 \; SSSAD /clap/controls 0 0.566949 1 0.284746 2
0.864407 3 0.59322 4 0.40678 5 0.457627 6 0.508475 7 0.367797 \; SSSAD
/bd/controls 0 0.271186 1 0.576271 2 0.271186 3 0.491525 4 0.677966
5 0.762712 6 0.59322 7 0.59322 \; SSSAD /hh/controls 0 0.382203 1 1
2 0.576271 3 0.820339 4 0.677966 5 0.0491525 6 0.576271 7 0.423729
8 0.813559 9 0.610169 10 0.915254 11 0.569492 \; SSSAD_ADMIN set \;
;
#X obj 20 20 inlet;
#X msg 72 17 set;
#X connect 1 0 0 0;
#X connect 2 0 0 0;
#X restore 803 75 pd backup;
#N canvas 359 348 450 300 saeg 0;
#X obj 151 27 + 1;
#X floatatom 118 49 5 0 0 0 - - -;
#X obj 202 208 select 1;
#X msg 203 232 bang;
#X obj 118 27 int;
#X obj 132 208 select 1;
#X msg 133 232 bang;
#X obj 62 208 select 1;
#X msg 63 232 bang;
#X obj 118 70 mod 16;
#X obj 203 185 mod 4;
#X obj 63 185 mod 4;
#X obj 133 185 mod 2;
#X obj 33 49 metro 400;
#X obj 102 102 cnv 15 340 25 empty empty empty 20 12 0 14 -4034 -66577
0;
#X obj 63 267 outlet;
#X obj 133 267 outlet;
#X obj 203 267 outlet;
#X obj 198 107 hradio 15 1 0 16 empty empty empty 0 -8 0 10 -257985
-1 -1 5;
#X obj 103 107 tgl 15 0 empty empty empty 17 7 0 10 -204800 -1 -1 0
1;
#X obj 33 19 inlet;
#X obj 122 106 knob 16 16 5000 1 0 0 empty empty empty 0 -8 0 8 -262144
-1 -1 1440 1;
#X obj 142 107 nbx 5 14 -1e+37 1e+37 0 0 empty empty empty 0 -8 0 10
-262144 -1 -1 200.96 256;
#X connect 0 0 4 1;
#X connect 1 0 9 0;
#X connect 2 0 3 0;
#X connect 3 0 17 0;
#X connect 4 0 0 0;
#X connect 4 0 1 0;
#X connect 5 0 6 0;
#X connect 6 0 16 0;
#X connect 7 0 8 0;
#X connect 8 0 15 0;
#X connect 9 0 18 0;
#X connect 10 0 2 0;
#X connect 11 0 7 0;
#X connect 12 0 5 0;
#X connect 13 0 4 0;
#X connect 18 0 11 0;
#X connect 18 0 12 0;
#X connect 18 0 10 0;
#X connect 19 0 13 0;
#X connect 20 0 21 0;
#X connect 21 0 13 1;
#X connect 21 0 22 0;
#X coords 0 -1 1 1 342 28 1 100 100;
#X restore 144 132 pd saeg;
#X obj 214 674 throw~ drums;
#X obj 214 581 perk-cymbal2 /cy2;
#X obj 214 461 perk-cymbal /cym;
#X obj 20 496 perk-clap /clp;
#X obj 41 246 perk-bassdrum /bum;
#X obj 417 246 perk-andyhat /ahh;
#X obj 226 245 perk-hihat /hh;
#X obj 604 246 perk-snare /sd;
#X obj 599 440 perk-cowbell /cow;
#X obj 405 504 perk-bell /bell;
#X obj 213 718 perk-lowtom /lotom;
#X obj 20 718 perk-hightom /hitom;
#X connect 0 0 13 0;
#X connect 1 0 50 0;
#X connect 1 1 46 0;
#X connect 1 3 54 0;
#X connect 1 4 49 0;
#X connect 1 6 45 0;
#X connect 1 13 51 0;
#X connect 16 0 17 0;
#X connect 17 0 18 0;
#X connect 20 0 21 0;
#X connect 21 0 17 1;
#X connect 29 0 42 0;
#X connect 30 0 47 1;
#X connect 31 0 49 1;
#X connect 32 0 50 1;
#X connect 34 0 36 0;
#X connect 38 0 37 0;
#X connect 42 0 47 0;
#X connect 42 1 49 0;
#X connect 42 2 48 0;
#X connect 42 2 46 0;
#X connect 44 0 43 0;
#X connect 45 0 8 0;
#X connect 46 0 7 0;
#X connect 47 0 3 0;
#X connect 48 0 5 0;
#X connect 49 0 4 0;
#X connect 50 0 6 0;
#X connect 51 0 10 0;
#X connect 52 0 9 0;
#X connect 53 0 12 0;
#X connect 54 0 11 0;
