#N canvas 1662 301 913 456 10;
#X obj 321 420 outlet~;
#X msg 22 70 open _samples/onomato/bd1.wav;
#X msg 23 95 open _samples/onomato/bd2.wav;
#X msg 417 65 open _samples/onomato/sd1.wav;
#X msg 428 90 open _samples/onomato/sd2.wav;
#X msg 217 121 open _samples/onomato/chh1.wav;
#X msg 214 150 open _samples/onomato/chh2.wav;
#X msg 218 69 open _samples/onomato/ohh1.wav;
#X msg 215 97 open _samples/onomato/ohh2.wav;
#X msg 434 116 open _samples/onomato/rim1.wav;
#X msg 445 141 open _samples/onomato/rim2.wav;
#X msg 452 168 open _samples/onomato/clap1.wav;
#X msg 463 189 open _samples/onomato/clap2.wav;
#X obj 412 44 inlet;
#X obj 455 43 inlet;
#X obj 313 45 inlet;
#X obj 356 44 inlet;
#X obj 692 39 inlet;
#X obj 735 38 inlet;
#X msg 689 62 open _samples/onomato/cow1.wav;
#X msg 703 87 open _samples/onomato/mar1.wav;
#X obj 252 336 delay 2;
#X msg 252 317 bang;
#X obj 498 43 inlet;
#X obj 541 42 inlet;
#X obj 587 42 inlet;
#X obj 630 41 inlet;
#X obj 218 46 inlet;
#X obj 261 45 inlet;
#X obj 30 50 inlet;
#X obj 73 49 inlet;
#X text 39 24 0 1 bass;
#X text 108 25 2 3 4 5 hihats;
#X text 211 24 6 7 8 9 10 11 12 13 snare;
#X text 409 24 14 15 klong;
#X msg 252 355 1;
#X obj 321 396 readsf~;
#X msg 11 140 open _samples/onomato/kick1.wav;
#X msg 15 165 open _samples/onomato/kick2.wav;
#X connect 1 0 22 0;
#X connect 1 0 36 0;
#X connect 2 0 22 0;
#X connect 2 0 36 0;
#X connect 3 0 22 0;
#X connect 3 0 36 0;
#X connect 4 0 22 0;
#X connect 4 0 36 0;
#X connect 5 0 22 0;
#X connect 5 0 36 0;
#X connect 6 0 22 0;
#X connect 6 0 36 0;
#X connect 7 0 22 0;
#X connect 7 0 36 0;
#X connect 8 0 22 0;
#X connect 8 0 36 0;
#X connect 9 0 22 0;
#X connect 9 0 36 0;
#X connect 10 0 22 0;
#X connect 10 0 36 0;
#X connect 11 0 22 0;
#X connect 11 0 36 0;
#X connect 12 0 22 0;
#X connect 12 0 36 0;
#X connect 13 0 3 0;
#X connect 14 0 9 0;
#X connect 15 0 5 0;
#X connect 16 0 6 0;
#X connect 17 0 19 0;
#X connect 18 0 20 0;
#X connect 19 0 22 0;
#X connect 19 0 36 0;
#X connect 20 0 22 0;
#X connect 20 0 36 0;
#X connect 21 0 35 0;
#X connect 22 0 21 0;
#X connect 23 0 9 0;
#X connect 24 0 10 0;
#X connect 25 0 11 0;
#X connect 26 0 12 0;
#X connect 27 0 7 0;
#X connect 28 0 8 0;
#X connect 29 0 1 0;
#X connect 30 0 2 0;
#X connect 35 0 36 0;
#X connect 36 0 0 0;
#X connect 37 0 36 0;
#X connect 37 0 22 0;
#X connect 38 0 36 0;
#X connect 38 0 22 0;
#X coords 0 -1 1 1 450 30 1 30 10;
