#N canvas 1865 22 843 403 10;
#X obj 119 18 arbum;
#X obj 353 348 dac~;
#X obj 739 187 knob 32 32 0 127 0 0 empty empty empty 0 -8 0 8 -262144
-1 -1 0 1;
#X obj 739 229 / 127;
#X obj 739 256 pack \$1 50;
#X obj 739 279 vline~;
#X obj 355 309 *~;
#X obj 25 20 pddp/dsp;
#X obj 121 249 drumset-frogs;
#X connect 0 0 8 6;
#X connect 0 1 8 7;
#X connect 0 2 8 5;
#X connect 0 3 8 4;
#X connect 0 4 8 2;
#X connect 0 5 8 3;
#X connect 0 13 8 12;
#X connect 0 14 8 13;
#X connect 2 0 3 0;
#X connect 3 0 4 0;
#X connect 4 0 5 0;
#X connect 5 0 6 1;
#X connect 6 0 1 0;
#X connect 6 0 1 1;
#X connect 8 0 6 0;
