#N canvas 1867 -118 843 403 10;
#X obj 34 19 powerswitch;
#X obj 81 212 bass1;
#X obj 77 167 bass2;
#X obj 504 119 crash;
#X obj 734 111 kick;
#X obj 644 100 hat1;
#X obj 234 22 arbum;
#X obj 250 272 dac~;
#X obj 664 174 knob 32 32 0 127 0 0 empty empty empty 0 -8 0 8 -262144
-1 -1 3100 1;
#X obj 664 216 / 127;
#X obj 664 243 pack \$1 50;
#X obj 664 266 vline~;
#X obj 252 233 *~;
#X obj 290 116 snare1;
#X obj 242 115 snare2;
#X obj 136 101 hitom;
#X obj 129 134 lotom;
#X obj 323 156 guitar1;
#X obj 325 339 guitar2;
#X connect 1 0 12 0;
#X connect 2 0 12 0;
#X connect 3 0 12 0;
#X connect 4 0 12 0;
#X connect 5 0 12 0;
#X connect 6 0 14 0;
#X connect 6 1 13 0;
#X connect 6 2 17 0;
#X connect 6 3 3 0;
#X connect 6 4 5 0;
#X connect 6 5 4 0;
#X connect 8 0 9 0;
#X connect 9 0 10 0;
#X connect 10 0 11 0;
#X connect 11 0 12 1;
#X connect 12 0 7 0;
#X connect 12 0 7 1;
#X connect 13 0 12 0;
#X connect 14 0 12 0;
#X connect 15 0 12 0;
#X connect 16 0 12 0;
#X connect 17 0 12 0;
