#N canvas 1790 -123 924 488 10;
#X obj 331 406 readsf~;
#X obj 331 430 outlet~;
#X msg 32 80 open _samples/808-909/bd1.wav;
#X msg 40 105 open _samples/808-909/bd2.wav;
#X msg 427 75 open _samples/808-909/sd1.wav;
#X msg 438 100 open _samples/808-909/sd2.wav;
#X msg 227 131 open _samples/808-909/chh1.wav;
#X msg 224 160 open _samples/808-909/chh2.wav;
#X msg 228 79 open _samples/808-909/ohh1.wav;
#X msg 225 107 open _samples/808-909/ohh2.wav;
#X msg 444 126 open _samples/808-909/rim1.wav;
#X msg 455 151 open _samples/808-909/rim2.wav;
#X msg 462 178 open _samples/808-909/clap1.wav;
#X msg 473 199 open _samples/808-909/clap2.wav;
#X obj 422 54 inlet;
#X obj 465 53 inlet;
#X obj 323 55 inlet;
#X obj 366 54 inlet;
#X obj 702 49 inlet;
#X obj 745 48 inlet;
#X msg 699 72 open _samples/808-909/cow1.wav;
#X msg 713 97 open _samples/808-909/mar1.wav;
#X obj 262 346 delay 2;
#X msg 262 365 1;
#X msg 262 327 bang;
#X obj 508 53 inlet;
#X obj 551 52 inlet;
#X obj 597 52 inlet;
#X obj 640 51 inlet;
#X obj 228 56 inlet;
#X obj 271 55 inlet;
#X obj 40 60 inlet;
#X obj 83 59 inlet;
#X text 49 34 0 1 bass;
#X text 118 35 2 3 4 5 hihats;
#X text 221 34 6 7 8 9 10 11 12 13 snare;
#X text 419 34 14 15 klong;
#X obj 682 356 tabwrite~ \$2;
#X msg 547 308 open _samples/808-909/bd1.wav;
#X obj 785 242 table bd1;
#X obj 833 329 makefilename;
#X symbolatom 834 354 10 0 0 0 - - -;
#X obj 545 341 readsf~;
#X obj 545 393 tabwrite~ bd1;
#X msg 43 346 5000;
#X msg 43 367 \; bd1 resize \$1 \; noise resize \$1 \; noise_and_line
resize \$1;
#X obj 492 325 delay 2;
#X msg 492 344 1;
#X msg 492 306 bang;
#X obj 30 10 pddp/dsp;
#X obj 444 427 tabread~ bd1;
#X connect 0 0 1 0;
#X connect 2 0 0 0;
#X connect 2 0 24 0;
#X connect 3 0 0 0;
#X connect 3 0 24 0;
#X connect 4 0 0 0;
#X connect 4 0 24 0;
#X connect 5 0 0 0;
#X connect 5 0 24 0;
#X connect 6 0 0 0;
#X connect 6 0 24 0;
#X connect 7 0 0 0;
#X connect 7 0 24 0;
#X connect 8 0 0 0;
#X connect 8 0 24 0;
#X connect 9 0 0 0;
#X connect 9 0 24 0;
#X connect 10 0 0 0;
#X connect 10 0 24 0;
#X connect 11 0 0 0;
#X connect 11 0 24 0;
#X connect 12 0 0 0;
#X connect 12 0 24 0;
#X connect 13 0 0 0;
#X connect 13 0 24 0;
#X connect 14 0 4 0;
#X connect 15 0 5 0;
#X connect 16 0 6 0;
#X connect 17 0 7 0;
#X connect 18 0 20 0;
#X connect 19 0 21 0;
#X connect 20 0 0 0;
#X connect 20 0 24 0;
#X connect 21 0 0 0;
#X connect 21 0 24 0;
#X connect 22 0 23 0;
#X connect 23 0 0 0;
#X connect 24 0 22 0;
#X connect 25 0 10 0;
#X connect 26 0 11 0;
#X connect 27 0 12 0;
#X connect 28 0 13 0;
#X connect 29 0 8 0;
#X connect 30 0 9 0;
#X connect 31 0 2 0;
#X connect 32 0 3 0;
#X connect 38 0 42 0;
#X connect 38 0 48 0;
#X connect 40 0 41 0;
#X connect 42 0 43 0;
#X connect 44 0 45 0;
#X connect 46 0 47 0;
#X connect 47 0 42 0;
#X connect 47 0 44 0;
#X connect 48 0 46 0;
